<svg width="1507" height="1507" viewBox="0 0 1507 1507" fill="none" xmlns="http://www.w3.org/2000/svg">
<g filter="url(#filter0_b_107_2)">
<path fill-rule="evenodd" clip-rule="evenodd" d="M329.656 523.859C329.656 503.553 344.429 486.265 364.486 483.098L408.6 476.133C428.149 473.046 443.439 457.665 447.63 438.322C467.462 346.796 541.409 94.1875 753.5 94.1875C953.858 94.1875 1030.93 319.62 1055.57 421.724C1062.58 450.797 1085.68 474.124 1115.22 478.788L1142.51 483.098C1162.57 486.265 1177.34 503.553 1177.34 523.859V523.859C1177.34 546.65 1158.87 565.125 1136.08 565.125H370.922C348.132 565.125 329.656 546.65 329.656 523.859V523.859ZM701.448 339.768C696.764 335.084 696.351 327.627 700.489 322.454L768.246 237.758C777.314 226.423 795.32 236.219 790.73 249.99L772.681 304.137C770.411 310.948 774.092 318.311 780.903 320.581L796.093 325.644C804.674 328.505 807.784 339.035 802.133 346.098L730.43 435.728C721.71 446.628 704.281 437.996 707.666 424.454L721.575 368.821C722.682 364.391 721.384 359.704 718.155 356.475L701.448 339.768Z" fill="white"/>
<path d="M524.24 642.874C535.107 627.351 552.863 618.105 571.811 618.105V618.105C603.881 618.105 629.879 644.103 629.879 676.173V759.387C629.879 824.41 682.59 877.121 747.613 877.121V877.121C812.636 877.121 865.348 824.41 865.348 759.387V683.915C865.348 647.57 894.812 618.105 931.158 618.105V618.105C952.632 618.105 972.756 628.583 985.071 646.176L1074.96 774.588C1108.08 821.903 1107.7 884.978 1074.02 931.895L990.946 1047.61C974.349 1070.72 965.422 1098.46 965.422 1126.92V1282.7C965.422 1357.81 904.533 1418.7 829.422 1418.7H677.578C602.467 1418.7 541.578 1357.81 541.578 1282.7V1126.92C541.578 1098.46 532.651 1070.72 516.054 1047.6L432.98 931.895C399.296 884.978 398.92 821.903 432.041 774.588L524.24 642.874Z" fill="white"/>
</g>
<defs>
<filter id="filter0_b_107_2" x="-4" y="-4" width="1515" height="1515" filterUnits="userSpaceOnUse" color-interpolation-filters="sRGB">
<feFlood flood-opacity="0" result="BackgroundImageFix"/>
<feGaussianBlur in="BackgroundImageFix" stdDeviation="2"/>
<feComposite in2="SourceAlpha" operator="in" result="effect1_backgroundBlur_107_2"/>
<feBlend mode="normal" in="SourceGraphic" in2="effect1_backgroundBlur_107_2" result="shape"/>
</filter>
</defs>
</svg>
